<svg xmlns="http://www.w3.org/2000/svg" xmlns:xlink="http://www.w3.org/1999/xlink" width="2416" height="1440" viewBox="0 0 2416 1440">
  <defs>
    <linearGradient id="linear-gradient" x1="1.654" y1="0.125" x2="-4.188" y2="2.023" gradientUnits="objectBoundingBox">
      <stop offset="0.004" stop-color="#fff"/>
      <stop offset="1" stop-color="#fda118"/>
    </linearGradient>
    <clipPath id="clip-path">
      <path id="Path_250" data-name="Path 250" d="M3787.1,1219.389l-196.037-4.548c-5.651-.131-9.41-4.85-8.394-10.541l21.867-122.556a12.461,12.461,0,0,1,12.071-10.066l196.036,4.548c5.651.131,9.41,4.85,8.394,10.54l-21.867,122.556A12.462,12.462,0,0,1,3787.1,1219.389Z" transform="translate(-3582.508 -1071.675)" fill="#fcaa23" clip-rule="evenodd"/>
    </clipPath>
    <linearGradient id="linear-gradient-2" x1="1.903" y1="0.023" x2="-0.263" y2="0.76" xlink:href="#linear-gradient"/>
    <linearGradient id="linear-gradient-3" x1="4.451" y1="-0.433" x2="0.286" y2="0.551" xlink:href="#linear-gradient"/>
    <clipPath id="clip-path-2">
      <path id="Path_295" data-name="Path 295" d="M3487.326,1522.865c32.766,7.808,101.965,54.713,124.845,114.9s2.487,173.092-22.88,243.722-78.09,277.047-271.741,272.405-335.243-6.632-384.815-115.395-16.415-177.071,71.79-228.137,146.565-39.639,186.356-175.669S3416.365,1505.954,3487.326,1522.865Z" transform="translate(-2909.649 -1513.84)" fill="#85b4ff"/>
    </clipPath>
    <clipPath id="clip-path-3">
      <path id="Path_298" data-name="Path 298" d="M3545.068,1460.05s-88.867,19.233-103.457,36.475-3.316,43.771,18.79,71.4,31.833,36.917,31.833,36.917l25.644-24.759s-19.012-22.991-32.5-42-19.012-24.1-1.769-29.18,59.466-19.453,59.466-19.453Z" transform="translate(-3435.051 -1460.05)" fill="#fdb2d0"/>
    </clipPath>
    <clipPath id="clip-path-4">
      <path id="Path_303" data-name="Path 303" d="M3324.638,2068.169l-14.964,2.043S3147.07,2083.091,3130.656,2101s27.356,206.915,27.356,206.915,35.812,17.906,54.713-2.487c0,0-7.958-139.18-22.383-169.317l117.219,5.675,78.256-65.158Z" transform="translate(-3126.973 -2068.169)" fill="#071868"/>
    </clipPath>
    <clipPath id="clip-path-5">
      <path id="Path_308" data-name="Path 308" d="M3281.51,2096.088s-60.276,45.76-108.026,79.085-165.632,114.9-223.329,121.861c0,0,2.984,42.279,23.377,50.237,0,0,94.007-30.838,204.428-83.562s172.1-90.028,189.009-121.86l-70.63-49.242Z" transform="translate(-2950.156 -2092.606)" fill="#081484"/>
    </clipPath>
    <clipPath id="clip-path-6">
      <path id="Path_314" data-name="Path 314" d="M3628.655,1682l2.652.663s7.959,2.762,22.549,9.118,29.18,18.957,31.391,43.937-18.237,80.467-18.237,80.467l-16.912,2.984s-13.264,36.144-19.564,53.055-21.886,76.267-49.076,88.2c0,0-13.927,2.985-37.138-19.9S3443.846,1894,3443.846,1894s36.144-13.816,47.418-31.059,29.8-81.572,36.454-103.789-40.433-65.987-40.433-65.987,12.6-22.548,33.823-33.16a41.4,41.4,0,0,0,30.4,12.711c19.011-.442,43.771,9.727,43.771,9.727Z" transform="translate(-3443.846 -1660.009)" fill="#fff"/>
    </clipPath>
    <clipPath id="clip-path-7">
      <path id="Path_317" data-name="Path 317" d="M3647.818,1922.75s-10.611,35.591-23.875,40.012-85.22,43.1-85.22,43.1-54.713-4.963-56.206,13.606,60.682,4.31,60.682,4.31,59.025-17.574,78.091-25.864,34.652-16.414,39.625-25.7,18.072-46.258,18.072-46.258S3652.405,1912.913,3647.818,1922.75Z" transform="translate(-3482.492 -1919.078)" fill="#fdb2d0"/>
    </clipPath>
    <clipPath id="clip-path-8">
      <path id="Path_323" data-name="Path 323" d="M3617.563,1462.732s-16.58,1.658-18.569-12.1,2.487-19.564,2.487-19.564-12.1-7.958-10.28-29.015,18.4-27.523,31-31.667,28.02,4.974,33.657,24.206c0,0,23.377-15.088,49.739-1.658s32,36.973,32,36.973l11.108-7.958,2.487,3.482-11.937,5.969s13.1,25.367-1.99,51.4-51.232,39.626-51.232,39.626Z" transform="translate(-3591.013 -1369.399)" fill="#002ff7"/>
    </clipPath>
    <clipPath id="clip-path-9">
      <path id="Path_327" data-name="Path 327" d="M3632.594,1518.622s-7.959,68.751,5.969,76.488,32.938-6.19,36.917,2.432,0,24.1,0,24.1,3.537,10.169,17.685,9.284,18.348-9.063,18.348-9.063-9.506-17.685-4.642-34.044,2.874-22.327,2.874-22.327,11.274-4.2,6.411-21.222-13.485-2.874-13.485-2.874-10.832,11.053-20.78-6.19c0,0-7.875,3.481-11.357-4.062s-1.243-11.689-1.243-11.689-12.186,12.269-23.378,7.212S3632.594,1518.622,3632.594,1518.622Z" transform="translate(-3630.33 -1518.622)" fill="#fdb2d0"/>
    </clipPath>
    <linearGradient id="linear-gradient-4" x1="4.451" y1="-0.433" x2="0.286" y2="0.551" gradientUnits="objectBoundingBox">
      <stop offset="0.004" stop-color="#fff"/>
      <stop offset="1" stop-color="#fbca8e"/>
    </linearGradient>
    <linearGradient id="linear-gradient-5" x1="4.451" y1="-0.433" x2="0.286" y2="0.551" gradientUnits="objectBoundingBox">
      <stop offset="0.004" stop-color="#fff"/>
      <stop offset="1" stop-color="#f5e2c3"/>
    </linearGradient>
    <clipPath id="clip-Image-hero-homepage">
      <rect width="2416" height="1440"/>
    </clipPath>
  </defs>
  <g id="Image-hero-homepage" clip-path="url(#clip-Image-hero-homepage)">
    <g id="Group_270" data-name="Group 270" transform="translate(-249.205 -440.134)">
      <path id="Background-6" d="M423,1196.636c-220.379,270.245-112.692,513.239,414.243,518.307,240.228,2.31,333.452,234.726,691.482,73.034,354.254-159.986,528.751,81.686,653.693-64.676,80.846-94.706,88.49-508.378,71.7-646.472-39.346-323.582-392.772-565.466-724.953-565.466-255.152,0-384.056,309.723-744.219,285.677C526.712,779.821,570.669,1015.573,423,1196.636Z" transform="translate(0 -12.221)" fill="#e7ecff"/>
      <path id="Path_245" data-name="Path 245" d="M3787.84,1236.808H3492.721l50.4-283.734h295.119Z" transform="translate(-1366.625 -202.198)" opacity="0.62" fill="url(#linear-gradient)"/>
      <g id="Group_236" data-name="Group 236" transform="translate(2177.267 811.457)">
        <g id="Group_233" data-name="Group 233" transform="translate(5.829 0)">
          <path id="Path_246" data-name="Path 246" d="M3798.682,1210.339l-196.036-4.548c-6.533-.152-10.893-5.627-9.719-12.2l21.867-122.556c1.174-6.578,7.443-11.806,13.976-11.655l196.037,4.548c6.672.155,10.89,5.638,10.067,10.253l-21.867,122.557C3811.547,1204.906,3805.657,1210.5,3798.682,1210.339Zm-170.492-147.712a10.51,10.51,0,0,0-10.167,8.478l-21.867,122.557a7.252,7.252,0,0,0,7.07,8.878l196.037,4.548c5.075.117,9.4-4.171,10.515-10.429l21.867-122.556c.472-2.647-2.5-6.813-7.418-6.927Z" transform="translate(-3592.736 -1059.372)" fill="#e88400"/>
        </g>
        <g id="Group_235" data-name="Group 235" transform="translate(0 7.011)">
          <path id="Path_247" data-name="Path 247" d="M3787.1,1219.389l-196.037-4.548c-5.651-.131-9.41-4.85-8.394-10.541l21.867-122.556a12.461,12.461,0,0,1,12.071-10.066l196.036,4.548c5.651.131,9.41,4.85,8.394,10.54l-21.867,122.556A12.462,12.462,0,0,1,3787.1,1219.389Z" transform="translate(-3582.508 -1071.675)" fill="#fcaa23" fill-rule="evenodd"/>
          <g id="Group_234" data-name="Group 234" clip-path="url(#clip-path)">
            <path id="Path_248" data-name="Path 248" d="M3611.528,1090.626l96.861,67.863,123.541-58.938-.761,10.328-122.347,56.788L3606.694,1096.5Z" transform="translate(-3592.91 -1079.826)" fill="#e88400" fill-rule="evenodd"/>
            <path id="Path_249" data-name="Path 249" d="M3598.408,1076.638l107.487,74.229,125.192-59.853-.764-18.23-229.2-5.317Z" transform="translate(-3589.347 -1069.865)" fill="#ffdc8f" fill-rule="evenodd"/>
          </g>
        </g>
      </g>
      <path id="Path_251" data-name="Path 251" d="M2133.713,1674.875H1108.4a51.442,51.442,0,0,1-50.521-61.131L1182.386,964.57a51.441,51.441,0,0,1,50.521-41.752H2258.223a51.442,51.442,0,0,1,50.521,61.131l-124.511,649.175A51.442,51.442,0,0,1,2133.713,1674.875Z" transform="translate(-319.013 -189.185)" fill="#0037b2"/>
      <path id="Path_252" data-name="Path 252" d="M2089.728,1674.875H1064.411a51.441,51.441,0,0,1-50.521-61.131L1138.4,964.57a51.442,51.442,0,0,1,50.521-41.752H2214.239a51.442,51.442,0,0,1,50.521,61.131l-124.511,649.175A51.441,51.441,0,0,1,2089.728,1674.875Z" transform="translate(-300.096 -189.185)" fill="#0051e0"/>
      <path id="Path_253" data-name="Path 253" d="M2091.886,1663.616h-917a51.442,51.442,0,0,1-50.521-61.131L1231.275,1045.1a51.441,51.441,0,0,1,50.521-41.751h917a51.441,51.441,0,0,1,50.521,61.131l-106.906,557.384A51.442,51.442,0,0,1,2091.886,1663.616Z" transform="translate(-347.612 -223.82)" fill="#fff" opacity="0.75"/>
      <path id="Path_254" data-name="Path 254" d="M2191.526,1576.165H1381.375l122.273-651.946H2313.8Z" transform="translate(-458.551 -189.787)" fill="#00084f" opacity="0.34"/>
      <g id="Group_237" data-name="Group 237" transform="translate(1803.306 616.944)">
        <path id="Path_255" data-name="Path 255" d="M2926.331,718.066h257.134l-60.019,275.8H3255.09" transform="translate(-2926.331 -718.066)" fill="none" stroke="#9fc4ff" stroke-miterlimit="10" stroke-width="12"/>
        <circle id="Ellipse_19" data-name="Ellipse 19" cx="16.911" cy="16.911" r="16.911" transform="translate(321.961 258.889)" fill="#9fc4ff"/>
      </g>
      <path id="Path_256" data-name="Path 256" d="M1351.158,705.21H1173.41L1136.271,890.9" transform="translate(-353.134 -95.593)" fill="none" stroke="#9fc4ff" stroke-miterlimit="10" stroke-width="12"/>
      <circle id="Ellipse_20" data-name="Ellipse 20" cx="23.212" cy="23.212" r="23.212" transform="translate(749.466 834.674) rotate(-76.717)" fill="#9fc4ff"/>
      <g id="Group_238" data-name="Group 238" transform="translate(875.984 482.948)">
        <path id="Path_257" data-name="Path 257" d="M2344.437,482.948h-806.4l-18.253,106.11h806.4Z" transform="translate(-1394.064 -482.948)" fill="#2c2cff"/>
        <path id="Path_258" data-name="Path 258" d="M1424.907,669.136l-125.72,730.835h806.4l125.721-730.835Z" transform="translate(-1299.186 -563.026)" opacity="0.62" fill="url(#linear-gradient-2)"/>
      </g>
      <path id="Path_259" data-name="Path 259" d="M1656.329,536.477l-8.621,41.781h300.756l9.285-41.781Z" transform="translate(-573.099 -23.022)" fill="#fff" opacity="0.92"/>
      <path id="Path_260" data-name="Path 260" d="M1691.943,735.466l-8.621,41.781h574.422l9.285-41.781Z" transform="translate(-588.416 -108.606)" fill="#fcaa23"/>
      <path id="Path_261" data-name="Path 261" d="M2231.006,955.25h0a16,16,0,0,0,15.7,19.059H2547.23a16,16,0,0,0,15.641-12.628h0a16,16,0,0,0-15.641-19.371H2246.711A16,16,0,0,0,2231.006,955.25Z" transform="translate(-823.842 -197.568)" fill="#fcaa23"/>
      <path id="Path_262" data-name="Path 262" d="M2217.915,1035.544h0a16,16,0,0,0,15.7,19.059h300.519a16,16,0,0,0,15.64-12.628h0a16,16,0,0,0-15.64-19.371H2233.62A16,16,0,0,0,2217.915,1035.544Z" transform="translate(-818.211 -232.102)" fill="#fcaa23"/>
      <path id="Path_263" data-name="Path 263" d="M2204.824,1115.838h0a16,16,0,0,0,15.7,19.059h300.519a16,16,0,0,0,15.641-12.628h0a16,16,0,0,0-15.641-19.371H2220.528A16,16,0,0,0,2204.824,1115.838Z" transform="translate(-812.581 -266.636)" fill="#fcaa23"/>
      <path id="Path_264" data-name="Path 264" d="M1501.078,1318.368l-15.392,90.769a9.66,9.66,0,0,0,9.524,11.276h155.526a9.662,9.662,0,0,0,9.517-8l15.842-90.769a9.661,9.661,0,0,0-9.517-11.321H1510.6A9.661,9.661,0,0,0,1501.078,1318.368Z" transform="translate(-503.355 -355.848)" fill="#fff" opacity="0.72"/>
      <path id="Path_265" data-name="Path 265" d="M1940.377,1318.368l-15.393,90.769a9.661,9.661,0,0,0,9.524,11.276h155.527a9.66,9.66,0,0,0,9.516-8l15.842-90.769a9.66,9.66,0,0,0-9.516-11.321H1949.9A9.66,9.66,0,0,0,1940.377,1318.368Z" transform="translate(-692.294 -355.848)" fill="#fff" opacity="0.72"/>
      <path id="Path_266" data-name="Path 266" d="M2379.676,1318.368l-15.393,90.769a9.66,9.66,0,0,0,9.524,11.276h155.526a9.661,9.661,0,0,0,9.517-8l15.842-90.769a9.66,9.66,0,0,0-9.516-11.321H2389.2A9.66,9.66,0,0,0,2379.676,1318.368Z" transform="translate(-881.233 -355.848)" fill="#fff" opacity="0.72"/>
      <path id="Path_267" data-name="Path 267" d="M1551.963,898.262l-26.937,150.632a14.684,14.684,0,0,0,14.455,17.269h320.305a14.684,14.684,0,0,0,14.445-12.047l27.491-150.633a14.684,14.684,0,0,0-14.446-17.321h-320.86A14.684,14.684,0,0,0,1551.963,898.262Z" transform="translate(-520.234 -173.419)" fill="#fff" opacity="0.72"/>
      <path id="Path_268" data-name="Path 268" d="M1593.6,1085.49s30.175-51.863,56.371-64.992,67.977,63.334,98.152,56.371,61.014-80.909,93.178-60.682,35.481,72.619,35.481,72.619Z" transform="translate(-549.826 -227.84)" fill="#80baff"/>
      <circle id="Ellipse_21" data-name="Ellipse 21" cx="17.906" cy="17.906" r="17.906" transform="translate(1186.268 761.278) rotate(-22.5)" fill="#ffe2b8"/>
      <path id="Path_269" data-name="Path 269" d="M2251.9,536.477l-8.622,41.781H2369.75l9.285-41.781Z" transform="translate(-829.25 -23.022)" fill="#ffe2b8"/>
      <path id="Path_270" data-name="Path 270" d="M2521.875,536.477l-8.621,41.781h187.483l9.284-41.781Z" transform="translate(-945.364 -23.022)" fill="#d4daff"/>
      <circle id="Ellipse_22" data-name="Ellipse 22" cx="14.922" cy="14.922" r="14.922" transform="translate(1025.321 523.734) rotate(-45)" fill="#fff"/>
      <path id="Path_271" data-name="Path 271" d="M1605.175,572.652l12.932,24.206,5.084-2.874-13.485-23.433Z" transform="translate(-554.806 -37.678)" fill="#fff"/>
      <path id="Path_272" data-name="Path 272" d="M1644.622,1570.9H1478.393a4.1,4.1,0,0,1-4.1-4.1h0a4.1,4.1,0,0,1,4.1-4.1h166.229a4.1,4.1,0,0,1,4.1,4.1h0A4.1,4.1,0,0,1,1644.622,1570.9Z" transform="translate(-498.513 -464.391)" fill="#fff" opacity="0.72"/>
      <path id="Path_273" data-name="Path 273" d="M1630.658,1652.506H1464.429a4.1,4.1,0,0,1-4.1-4.1h0a4.1,4.1,0,0,1,4.1-4.1h166.229a4.1,4.1,0,0,1,4.1,4.1h0A4.1,4.1,0,0,1,1630.658,1652.506Z" transform="translate(-492.508 -499.488)" fill="#fff" opacity="0.72"/>
      <path id="Path_274" data-name="Path 274" d="M1616.694,1734.109H1450.465a4.1,4.1,0,0,1-4.1-4.1h0a4.1,4.1,0,0,1,4.1-4.1h166.229a4.1,4.1,0,0,1,4.1,4.1h0A4.1,4.1,0,0,1,1616.694,1734.109Z" transform="translate(-486.502 -534.585)" fill="#fff" opacity="0.72"/>
      <path id="Path_275" data-name="Path 275" d="M1602.73,1815.712H1436.5a4.1,4.1,0,0,1-4.1-4.1h0a4.1,4.1,0,0,1,4.1-4.1H1602.73a4.1,4.1,0,0,1,4.1,4.1h0A4.1,4.1,0,0,1,1602.73,1815.712Z" transform="translate(-480.496 -569.682)" fill="#fff" opacity="0.72"/>
      <path id="Path_276" data-name="Path 276" d="M2081.87,1570.9H1915.641a4.1,4.1,0,0,1-4.1-4.1h0a4.1,4.1,0,0,1,4.1-4.1H2081.87a4.1,4.1,0,0,1,4.1,4.1h0A4.1,4.1,0,0,1,2081.87,1570.9Z" transform="translate(-686.57 -464.391)" fill="#fff" opacity="0.72"/>
      <path id="Path_277" data-name="Path 277" d="M2067.905,1652.506H1901.676a4.1,4.1,0,0,1-4.1-4.1h0a4.1,4.1,0,0,1,4.1-4.1h166.229a4.1,4.1,0,0,1,4.1,4.1h0A4.1,4.1,0,0,1,2067.905,1652.506Z" transform="translate(-680.564 -499.488)" fill="#fff" opacity="0.72"/>
      <path id="Path_278" data-name="Path 278" d="M2053.941,1734.109H1887.712a4.1,4.1,0,0,1-4.1-4.1h0a4.1,4.1,0,0,1,4.1-4.1h166.229a4.1,4.1,0,0,1,4.1,4.1h0A4.1,4.1,0,0,1,2053.941,1734.109Z" transform="translate(-674.558 -534.585)" fill="#fff" opacity="0.72"/>
      <path id="Path_279" data-name="Path 279" d="M2039.977,1815.712H1873.748a4.1,4.1,0,0,1-4.1-4.1h0a4.1,4.1,0,0,1,4.1-4.1h166.229a4.1,4.1,0,0,1,4.1,4.1h0A4.1,4.1,0,0,1,2039.977,1815.712Z" transform="translate(-668.552 -569.682)" fill="#fff" opacity="0.72"/>
      <path id="Path_280" data-name="Path 280" d="M2519.117,1570.9H2352.888a4.1,4.1,0,0,1-4.1-4.1h0a4.1,4.1,0,0,1,4.1-4.1h166.229a4.1,4.1,0,0,1,4.1,4.1h0A4.1,4.1,0,0,1,2519.117,1570.9Z" transform="translate(-874.627 -464.391)" fill="#fff" opacity="0.72"/>
      <path id="Path_281" data-name="Path 281" d="M2505.153,1652.506H2338.924a4.1,4.1,0,0,1-4.1-4.1h0a4.1,4.1,0,0,1,4.1-4.1h166.229a4.1,4.1,0,0,1,4.1,4.1h0A4.1,4.1,0,0,1,2505.153,1652.506Z" transform="translate(-868.621 -499.488)" fill="#fff" opacity="0.72"/>
      <path id="Path_282" data-name="Path 282" d="M2491.189,1734.109H2324.96a4.1,4.1,0,0,1-4.1-4.1h0a4.1,4.1,0,0,1,4.1-4.1h166.229a4.1,4.1,0,0,1,4.1,4.1h0A4.1,4.1,0,0,1,2491.189,1734.109Z" transform="translate(-862.615 -534.585)" fill="#fff" opacity="0.72"/>
      <path id="Path_283" data-name="Path 283" d="M2477.224,1815.712H2311a4.1,4.1,0,0,1-4.1-4.1h0a4.1,4.1,0,0,1,4.1-4.1h166.229a4.1,4.1,0,0,1,4.1,4.1h0A4.1,4.1,0,0,1,2477.224,1815.712Z" transform="translate(-856.609 -569.682)" fill="#fff" opacity="0.72"/>
      <path id="Path_284" data-name="Path 284" d="M1253.2,1759.958H1063.56a50.229,50.229,0,0,1-49.335-59.665l110.862-579.65h250.386Z" transform="translate(-300.251 -274.268)" fill="#00084f" opacity="0.34"/>
      <g id="Group_239" data-name="Group 239" transform="translate(513.237 846.376)">
        <path id="Path_285" data-name="Path 285" d="M662.686,1801.6h399.24l85.546-547.131H751.724Z" transform="translate(-662.686 -1178.2)" opacity="0.62" fill="url(#linear-gradient-3)"/>
        <path id="Path_286" data-name="Path 286" d="M831.33,1120.644l-12.411,76.267h395.748l11.925-76.267Z" transform="translate(-729.881 -1120.644)" fill="#2c2cff"/>
      </g>
      <path id="Path_287" data-name="Path 287" d="M1146.709,1773.965H921.554a5.558,5.558,0,0,1-5.558-5.558h0a5.558,5.558,0,0,1,5.558-5.558h225.155a5.558,5.558,0,0,1,5.558,5.558h0A5.558,5.558,0,0,1,1146.709,1773.965Z" transform="translate(-258.395 -550.475)" fill="#fff" opacity="0.72"/>
      <path id="Path_288" data-name="Path 288" d="M1127.795,1884.5H902.64a5.558,5.558,0,0,1-5.558-5.558h0a5.558,5.558,0,0,1,5.558-5.558h225.155a5.558,5.558,0,0,1,5.558,5.558h0A5.558,5.558,0,0,1,1127.795,1884.5Z" transform="translate(-250.261 -598.013)" fill="#fff" opacity="0.72"/>
      <path id="Path_289" data-name="Path 289" d="M1108.88,1995.025H883.726a5.558,5.558,0,0,1-5.558-5.558h0a5.558,5.558,0,0,1,5.558-5.558H1108.88a5.558,5.558,0,0,1,5.558,5.558h0A5.558,5.558,0,0,1,1108.88,1995.025Z" transform="translate(-242.126 -645.552)" fill="#fff" opacity="0.72"/>
      <path id="Path_290" data-name="Path 290" d="M1203.746,1438.067H978.591a5.558,5.558,0,0,1-5.558-5.558h0a5.558,5.558,0,0,1,5.558-5.558h225.155a5.558,5.558,0,0,1,5.558,5.558h0A5.558,5.558,0,0,1,1203.746,1438.067Z" transform="translate(-282.926 -406.009)" fill="#fff" opacity="0.72"/>
      <path id="Path_291" data-name="Path 291" d="M1184.832,1548.6H959.677a5.558,5.558,0,0,1-5.558-5.558h0a5.558,5.558,0,0,1,5.558-5.558h225.155a5.558,5.558,0,0,1,5.558,5.558h0A5.558,5.558,0,0,1,1184.832,1548.6Z" transform="translate(-274.792 -453.546)" fill="#fff" opacity="0.72"/>
      <path id="Path_292" data-name="Path 292" d="M1165.918,1659.127H940.763a5.558,5.558,0,0,1-5.558-5.558h0a5.558,5.558,0,0,1,5.558-5.558h225.155a5.558,5.558,0,0,1,5.558,5.558h0A5.558,5.558,0,0,1,1165.918,1659.127Z" transform="translate(-266.657 -501.085)" fill="#fff" opacity="0.72"/>
      <rect id="Rectangle_24" data-name="Rectangle 24" width="252.637" height="41.118" rx="20.559" transform="translate(635.285 867.598)" fill="#fff" opacity="0.92"/>
      <rect id="Rectangle_25" data-name="Rectangle 25" width="2118.117" height="11.272" transform="translate(410.093 1681.002)" fill="#1d2f93"/>
      <g id="Group_241" data-name="Group 241" transform="translate(1793.799 1070.461)">
        <path id="Path_293" data-name="Path 293" d="M3487.326,1522.865c32.766,7.808,101.965,54.713,124.845,114.9s2.487,173.092-22.88,243.722-78.09,277.047-271.741,272.405-335.243-6.632-384.815-115.395-16.415-177.071,71.79-228.137,146.565-39.639,186.356-175.669S3416.365,1505.954,3487.326,1522.865Z" transform="translate(-2909.649 -1513.84)" fill="#85b4ff"/>
        <g id="Group_240" data-name="Group 240" clip-path="url(#clip-path-2)">
          <path id="Path_294" data-name="Path 294" d="M3261.052,2139.145s-30.507-99.993,1.327-107.694,220.568,19.356,233.442-119.78,143.913-201.61,86.877-277.214-53.718-45.1-35.812-98.152-28.518-80.025-62.34-76.488-65.655,83.783-66.319,144.8-62.34,154.015-145.9,193.651-149.218,14.59-169.113,153.2,7.295,185.03,7.295,185.03Z" transform="translate(-2989.768 -1490.472)" fill="#5a89ff"/>
        </g>
      </g>
      <g id="Group_243" data-name="Group 243" transform="translate(2093.229 1039.806)">
        <path id="Path_296" data-name="Path 296" d="M3545.068,1460.05s-88.867,19.233-103.457,36.475-3.316,43.771,18.79,71.4,31.833,36.917,31.833,36.917l25.644-24.759s-19.012-22.991-32.5-42-19.012-24.1-1.769-29.18,59.466-19.453,59.466-19.453Z" transform="translate(-3435.051 -1460.05)" fill="#fdb2d0"/>
        <g id="Group_242" data-name="Group 242" transform="translate(0 0)" clip-path="url(#clip-path-3)">
          <path id="Path_297" data-name="Path 297" d="M3514.573,1617.065c-.332-.111,13.927-11.5,8.511-29.954s-20.117-34.817-26.306-46.644-3.316-15.032,4.421-18.016,41.339-12.38,49.518-16.69a14.524,14.524,0,0,0,7.737-12.932l1.437,23.433-54.161,14.48,45.76,59.576-12.6,18.348Z" transform="translate(-3460.153 -1474.147)" fill="#f476af"/>
        </g>
      </g>
      <g id="Group_244" data-name="Group 244" transform="translate(1864.91 1620.318)">
        <path id="Path_299" data-name="Path 299" d="M3239.4,2516.061c-.354-9.128-3.053-17.055-3.053-18.407,0-3.979-1.1-13.029-1.769-19l-46.865,1.326s2.393,16.5-4.795,22.385C3188.99,2508.363,3207.344,2522.633,3239.4,2516.061Z" transform="translate(-3098.289 -2478.657)" fill="#fdb2d0"/>
        <path id="Path_300" data-name="Path 300" d="M3119.051,2520.263a8.8,8.8,0,0,1-1.174.827c-8.621,4.973-71.956,17.242-79.915,29.511s0,29.844,0,29.844l139.27-4.311s-1.012-24.432-1.7-42.178C3143.48,2540.528,3125.126,2526.257,3119.051,2520.263Z" transform="translate(-3034.425 -2496.551)" fill="#005cff"/>
      </g>
      <g id="Group_246" data-name="Group 246" transform="translate(1917.654 1386.378)">
        <path id="Path_301" data-name="Path 301" d="M3324.638,2068.169l-14.964,2.043S3147.07,2083.091,3130.656,2101s27.356,206.915,27.356,206.915,35.812,17.906,54.713-2.487c0,0-7.958-139.18-22.383-169.317l117.219,5.675,78.256-65.158Z" transform="translate(-3126.973 -2068.169)" fill="#071868"/>
        <g id="Group_245" data-name="Group 245" transform="translate(0)" clip-path="url(#clip-path-4)">
          <path id="Path_302" data-name="Path 302" d="M3200.57,2332.837s8.953-71.224,3.482-134.227-12.187-68.08,42.9-65.293-25.989-28.458-25.989-28.458l176.154-9.416-28.429,78.463s-85.386,63.169-91.188,69.138-41.118,87.043-41.118,87.043Z" transform="translate(-3158.588 -2079.899)" fill="#051451"/>
        </g>
      </g>
      <g id="Group_247" data-name="Group 247" transform="translate(1692.702 1541.876)">
        <path id="Path_304" data-name="Path 304" d="M2828.419,2424.1s-55.045-78.257-64.33-81.9-31.833,2.321-31.833,2.321,31.833,135.291,47.086,135.622c6.674.145,26.68-5.741,47.073-12.407C2816.053,2447.979,2828.419,2424.1,2828.419,2424.1Z" transform="translate(-2732.257 -2341.016)" fill="#005cff"/>
        <path id="Path_305" data-name="Path 305" d="M2933.825,2460.62l-37.47,14.921s-12.366,23.878-2,43.632c26.214-8.57,53.068-18.431,53.068-18.431Z" transform="translate(-2800.193 -2392.457)" fill="#fdb2d0"/>
      </g>
      <g id="Group_249" data-name="Group 249" transform="translate(1816.884 1400.305)">
        <path id="Path_306" data-name="Path 306" d="M3281.51,2096.088s-60.276,45.76-108.026,79.085-165.632,114.9-223.329,121.861c0,0,2.984,42.279,23.377,50.237,0,0,94.007-30.838,204.428-83.562s172.1-90.028,189.009-121.86l-70.63-49.242Z" transform="translate(-2950.156 -2092.606)" fill="#081484"/>
        <g id="Group_248" data-name="Group 248" clip-path="url(#clip-path-5)">
          <path id="Path_307" data-name="Path 307" d="M2934.748,2349.717s20.625,16.911,94.534-10.942,303.332-138.809,321.61-176.875l23.794,18.7-75.523,88.039s-124.549,55.708-125.443,56.2-97.541,30.647-97.541,30.647l-90.871,44.957-38.8-4.227Z" transform="translate(-2943.529 -2122.409)" fill="#06156d"/>
        </g>
      </g>
      <g id="Group_252" data-name="Group 252" transform="translate(2098.242 1153.764)">
        <path id="Path_309" data-name="Path 309" d="M3628.655,1682l2.652.663s7.959,2.762,22.549,9.118,29.18,18.957,31.391,43.937-18.237,80.467-18.237,80.467l-16.912,2.984s-13.264,36.144-19.564,53.055-21.886,76.267-49.076,88.2c0,0-13.927,2.985-37.138-19.9S3443.846,1894,3443.846,1894s36.144-13.816,47.418-31.059,29.8-81.572,36.454-103.789-40.433-65.987-40.433-65.987,12.6-22.548,33.823-33.16a41.4,41.4,0,0,0,30.4,12.711c19.011-.442,43.771,9.727,43.771,9.727Z" transform="translate(-3443.846 -1660.009)" fill="#fff"/>
        <g id="Group_251" data-name="Group 251" clip-path="url(#clip-path-6)">
          <path id="Path_310" data-name="Path 310" d="M3776.26,1829.358s3.316-2.321,17.685-2.321,49.407-84,6.964-109.426l48.413,22.549-17.464,87.762-27.744,25.422-18.238-9.727-12.457-10.544Z" transform="translate(-3585.593 -1684.783)" fill="#ffebd2"/>
          <path id="Path_311" data-name="Path 311" d="M3687.945,1804.3s-19.012,66.651-35.259,87.541-108.763,66.984-108.763,66.984l2.321,29.178,27.978,4.645s94.053-32.5,105.988-53.721,2.319-53.719,2.319-53.719l-3.647-12.868-3.006-1Z" transform="translate(-3486.888 -1722.069)" fill="#ffebd2"/>
          <g id="Group_250" data-name="Group 250" transform="translate(187.268 77.287)">
            <path id="Path_312" data-name="Path 312" d="M3773.74,1870.731a1.317,1.317,0,0,1-.268-.028,1.3,1.3,0,0,1-1-1.538c6.748-32.146,13.628-72.062,13.7-72.461a1.3,1.3,0,0,1,2.559.44c-.068.4-6.957,40.364-13.715,72.556A1.3,1.3,0,0,1,3773.74,1870.731Z" transform="translate(-3772.44 -1795.623)" fill="#ef7d00"/>
          </g>
          <path id="Path_313" data-name="Path 313" d="M3519.776,1727.211s27.357,14.258,39.46,29.678-4.973,51.668-4.973,51.668l-25.968-65.1Z" transform="translate(-3476.503 -1688.912)" fill="#ffebd2"/>
        </g>
      </g>
      <g id="Group_254" data-name="Group 254" transform="translate(2120.267 1301.41)">
        <path id="Path_315" data-name="Path 315" d="M3647.818,1922.75s-10.611,35.591-23.875,40.012-85.22,43.1-85.22,43.1-54.713-4.963-56.206,13.606,60.682,4.31,60.682,4.31,59.025-17.574,78.091-25.864,34.652-16.414,39.625-25.7,18.072-46.258,18.072-46.258S3652.405,1912.913,3647.818,1922.75Z" transform="translate(-3482.492 -1919.078)" fill="#fdb2d0"/>
        <g id="Group_253" data-name="Group 253" clip-path="url(#clip-path-7)">
          <path id="Path_316" data-name="Path 316" d="M3670.92,1921.255s5.084,2.873.221,15.474-8.593,28.724-15.7,36.7-92.388,44.216-104.342,47.087-64.55,0-64.55,0l-4.061,9.43h92.928l79.362-22.03s13.927-24.1,14.59-25.644,17.685-34.707,17.022-35.149-2.432-25.643-2.432-25.643Z" transform="translate(-3482.492 -1920.014)" fill="#f476af"/>
        </g>
      </g>
      <path id="Path_318" data-name="Path 318" d="M3489.617,2098.134l70.3,1.768v11.053l-65.125,1.613Z" transform="translate(-1365.29 -694.679)" fill="#e08500"/>
      <path id="Path_319" data-name="Path 319" d="M3185.8,1875.289h181.548l-3.228,141.436H3194.753Z" transform="translate(-1234.62 -598.835)" fill="#fcaa23"/>
      <ellipse id="Ellipse_23" data-name="Ellipse 23" cx="17.022" cy="18.79" rx="17.022" ry="18.79" transform="matrix(0.999, -0.053, 0.053, 0.999, 2018.566, 1326.575)" fill="#fff" opacity="0.64"/>
      <g id="Group_256" data-name="Group 256" transform="translate(2182.114 988.143)">
        <path id="Path_320" data-name="Path 320" d="M3617.563,1462.732s-16.58,1.658-18.569-12.1,2.487-19.564,2.487-19.564-12.1-7.958-10.28-29.015,18.4-27.523,31-31.667,28.02,4.974,33.657,24.206c0,0,23.377-15.088,49.739-1.658s32,36.973,32,36.973l11.108-7.958,2.487,3.482-11.937,5.969s13.1,25.367-1.99,51.4-51.232,39.626-51.232,39.626Z" transform="translate(-3591.013 -1369.399)" fill="#002ff7"/>
        <g id="Group_255" data-name="Group 255" transform="translate(0 0)" clip-path="url(#clip-path-8)">
          <path id="Path_321" data-name="Path 321" d="M3591.052,1484.234l7.3-6.632s-.552,15.6,10.666,14.844,44.8-5.559,44.8-5.559,9.2,28.849,30.587,21.553,14.289,17.148,28.517,23.875,22.714,3.482,22.714,3.482l-55.708,42.941-41.118-33.822-49.408-29.18s-6.134-26.362-5.636-26.528S3591.052,1484.234,3591.052,1484.234Z" transform="translate(-3587.881 -1415.937)" fill="#0030c9"/>
          <path id="Path_322" data-name="Path 322" d="M3604.434,1372.946s25.864-13.6,38.3.663,14.922,24.372,14.922,24.372,10.591-13.323,35.978-10.114,53.432,42.151,53.432,42.151l23.663-3.188s.332-29.18-1.492-30.507S3668.6,1363.01,3668.6,1363.01l-36.144-8.467Z" transform="translate(-3596.786 -1363.01)" fill="#5e8af7"/>
        </g>
      </g>
      <g id="Group_258" data-name="Group 258" transform="translate(2204.521 1073.187)">
        <path id="Path_324" data-name="Path 324" d="M3632.594,1518.622s-7.959,68.751,5.969,76.488,32.938-6.19,36.917,2.432,0,24.1,0,24.1,3.537,10.169,17.685,9.284,18.348-9.063,18.348-9.063-9.506-17.685-4.642-34.044,2.874-22.327,2.874-22.327,11.274-4.2,6.411-21.222-13.485-2.874-13.485-2.874-10.832,11.053-20.78-6.19c0,0-7.875,3.481-11.357-4.062s-1.243-11.689-1.243-11.689-12.186,12.269-23.378,7.212S3632.594,1518.622,3632.594,1518.622Z" transform="translate(-3630.33 -1518.622)" fill="#fdb2d0"/>
        <g id="Group_257" data-name="Group 257" transform="translate(0 0)" clip-path="url(#clip-path-9)">
          <path id="Path_325" data-name="Path 325" d="M3622.471,1517.826s7.295,12.6,19.813,12.1,17.409-4.477,17.409-4.477,7.709,13.844,17.657,11.026c0,0,7.046,12.683,19.813,6.3s18.652-2.819,18.652-2.819l-3.979-13.761-38.8-16.58-31-1.907-12.683.083Z" transform="translate(-3626.949 -1513.93)" fill="#f476af"/>
          <path id="Path_326" data-name="Path 326" d="M3695.492,1646.855l3.741-2.022s29.087-17.21,27.926-5.6-25.281,21.222-25.281,21.222Z" transform="translate(-3658.355 -1568.765)" fill="#f476af"/>
        </g>
      </g>
      <g id="Group_265" data-name="Group 265" transform="translate(567.324 1003.424)">
        <g id="Group_259" data-name="Group 259" transform="translate(50.399 0)" opacity="0.72">
          <path id="Path_328" data-name="Path 328" d="M863.435,1431.249a3.9,3.9,0,0,1-2.86-1.166l-13.52-14.152c-1.607-1.682-1.3-4.564.675-6.438s4.887-2.03,6.494-.348l10.554,11.046,22.885-22.4c1.948-1.906,4.86-2.118,6.505-.473s1.4,4.524-.548,6.431l-26.481,25.919a5.442,5.442,0,0,1-3.411,1.572C863.629,1431.246,863.532,1431.249,863.435,1431.249Z" transform="translate(-846.023 -1396.211)" fill="#fff"/>
        </g>
        <g id="Group_260" data-name="Group 260" transform="translate(40.397 62.992)" opacity="0.72">
          <path id="Path_329" data-name="Path 329" d="M845.885,1541.779a3.9,3.9,0,0,1-2.86-1.167l-13.52-14.152c-1.607-1.682-1.3-4.564.675-6.439s4.888-2.029,6.494-.347l10.554,11.046,22.885-22.4c1.948-1.907,4.86-2.119,6.506-.473s1.4,4.524-.548,6.43L849.589,1540.2a5.438,5.438,0,0,1-3.411,1.571Q846.031,1541.779,845.885,1541.779Z" transform="translate(-828.473 -1506.741)" fill="#fff"/>
        </g>
        <g id="Group_261" data-name="Group 261" transform="translate(30.731 123.868)" opacity="0.72">
          <path id="Path_330" data-name="Path 330" d="M828.925,1648.6a3.9,3.9,0,0,1-2.86-1.167l-13.52-14.153c-1.607-1.682-1.3-4.564.675-6.438s4.887-2.03,6.493-.347l10.554,11.047,22.885-22.4c1.948-1.907,4.861-2.119,6.505-.473s1.4,4.524-.548,6.43l-26.481,25.92a5.437,5.437,0,0,1-3.411,1.571C829.12,1648.594,829.022,1648.6,828.925,1648.6Z" transform="translate(-811.513 -1613.559)" fill="#fff"/>
        </g>
        <g id="Group_262" data-name="Group 262" transform="translate(20.296 189.587)" opacity="0.72">
          <path id="Path_331" data-name="Path 331" d="M810.616,1763.912a3.9,3.9,0,0,1-2.86-1.166l-13.52-14.153c-1.607-1.682-1.305-4.564.674-6.438s4.887-2.031,6.494-.348l10.553,11.047,22.885-22.4c1.948-1.906,4.86-2.118,6.505-.473s1.4,4.524-.548,6.431l-26.481,25.919a5.438,5.438,0,0,1-3.411,1.571Q810.761,1763.912,810.616,1763.912Z" transform="translate(-793.203 -1728.874)" fill="#fff"/>
        </g>
        <g id="Group_263" data-name="Group 263" transform="translate(10.002 254.422)" opacity="0.72">
          <path id="Path_332" data-name="Path 332" d="M792.552,1877.677a3.9,3.9,0,0,1-2.86-1.167l-13.52-14.152c-1.607-1.682-1.3-4.564.675-6.438s4.888-2.03,6.494-.347l10.554,11.047,22.886-22.4c1.947-1.906,4.86-2.119,6.505-.473s1.4,4.524-.548,6.43l-26.481,25.92a5.439,5.439,0,0,1-3.411,1.571C792.747,1877.673,792.649,1877.677,792.552,1877.677Z" transform="translate(-775.14 -1842.638)" fill="#fff"/>
        </g>
        <g id="Group_264" data-name="Group 264" transform="translate(0 317.415)" opacity="0.72">
          <path id="Path_333" data-name="Path 333" d="M775,1988.206a3.9,3.9,0,0,1-2.86-1.166l-13.52-14.152c-1.607-1.682-1.305-4.564.674-6.438s4.887-2.031,6.494-.348l10.554,11.046,22.885-22.4c1.948-1.906,4.86-2.118,6.505-.473s1.4,4.525-.548,6.431l-26.481,25.919a5.439,5.439,0,0,1-3.411,1.571C775.2,1988.2,775.1,1988.206,775,1988.206Z" transform="translate(-757.59 -1953.169)" fill="#fff"/>
        </g>
      </g>
      <g id="Group_268" data-name="Group 268" transform="translate(1780.745 945.816)">
        <path id="Path_334" data-name="Path 334" d="M2959.671,1603.914H3124.2l49.734-308.785H3018.9Z" transform="translate(-2918.11 -1295.129)" fill="#00084f" opacity="0.34"/>
        <g id="Group_267" data-name="Group 267" transform="translate(0 28.831)">
          <path id="Path_335" data-name="Path 335" d="M2910,1606.99h176.459l37.81-241.825H2949.35Z" transform="translate(-2896.745 -1354.082)" fill="url(#linear-gradient-4)"/>
          <path id="Path_336" data-name="Path 336" d="M2898.813,1596.382h176.459l37.81-241.825H2938.167Z" transform="translate(-2891.935 -1349.52)" fill="url(#linear-gradient-5)"/>
          <path id="Path_337" data-name="Path 337" d="M2886.744,1587.543H3063.2l37.81-241.825H2926.1Z" transform="translate(-2886.744 -1345.718)" fill="url(#linear-gradient-3)"/>
          <path id="Path_338" data-name="Path 338" d="M3080.638,1575.329H2962.4a2.718,2.718,0,0,1-2.919-2.456h0a2.718,2.718,0,0,1,2.919-2.457h118.243a2.718,2.718,0,0,1,2.919,2.457h0A2.718,2.718,0,0,1,3080.638,1575.329Z" transform="translate(-2918.026 -1442.359)" fill="#fff" opacity="0.72"/>
          <path id="Path_339" data-name="Path 339" d="M3070.705,1624.182H2952.461a2.718,2.718,0,0,1-2.918-2.457h0a2.718,2.718,0,0,1,2.918-2.456h118.244a2.717,2.717,0,0,1,2.918,2.456h0A2.718,2.718,0,0,1,3070.705,1624.182Z" transform="translate(-2913.753 -1463.37)" fill="#fff" opacity="0.72"/>
          <path id="Path_340" data-name="Path 340" d="M3060.772,1673.035H2942.529a2.718,2.718,0,0,1-2.918-2.457h0a2.717,2.717,0,0,1,2.918-2.456h118.243a2.717,2.717,0,0,1,2.919,2.456h0A2.718,2.718,0,0,1,3060.772,1673.035Z" transform="translate(-2909.481 -1484.381)" fill="#fff" opacity="0.72"/>
          <path id="Path_341" data-name="Path 341" d="M3110.592,1426.867H2992.349a2.718,2.718,0,0,1-2.919-2.457h0a2.718,2.718,0,0,1,2.919-2.456h118.244a2.717,2.717,0,0,1,2.918,2.456h0A2.718,2.718,0,0,1,3110.592,1426.867Z" transform="translate(-2930.908 -1378.506)" fill="#fff" opacity="0.72"/>
          <path id="Path_342" data-name="Path 342" d="M3100.659,1475.719H2982.416a2.717,2.717,0,0,1-2.918-2.456h0a2.718,2.718,0,0,1,2.918-2.457h118.244a2.718,2.718,0,0,1,2.919,2.457h0A2.717,2.717,0,0,1,3100.659,1475.719Z" transform="translate(-2926.637 -1399.517)" fill="#fff" opacity="0.72"/>
          <path id="Path_343" data-name="Path 343" d="M3090.726,1524.572H2972.482a2.718,2.718,0,0,1-2.918-2.456h0a2.718,2.718,0,0,1,2.918-2.457h118.243a2.718,2.718,0,0,1,2.919,2.457h0A2.718,2.718,0,0,1,3090.726,1524.572Z" transform="translate(-2922.364 -1420.529)" fill="#fff" opacity="0.72"/>
          <g id="Group_266" data-name="Group 266" transform="translate(93.229 206.04)" opacity="0.72">
            <path id="Path_344" data-name="Path 344" d="M3083.393,1726.746a2.565,2.565,0,0,1-.981-.194c-1.782-.726-2.743-3.41-3.429-9.57-.3-2.695-1-3.138-1.2-3.21-1.3-.453-4.588,2.874-6.991,5.3-3.972,4.016-7.724,7.808-10.782,6.189l-.712-.377.212-.778c2.9-10.666,1.349-13.61.168-14.416-2.138-1.458-6.711,1.256-8.145,2.321l-1.2-1.617c.683-.508,6.783-4.89,10.481-2.368,2.816,1.92,3.116,7.024.912,15.588,1.915-.175,5.051-3.345,7.637-5.959,3.533-3.572,6.585-6.656,9.084-5.788,1.864.648,2.343,3.1,2.542,4.89.713,6.413,1.676,7.719,2.186,7.927.723.3,2.481-1.144,4.181-2.536,3.917-3.206,9.834-8.05,18.438-6.472l-.364,1.982c-7.684-1.411-12.952,2.9-16.8,6.049C3086.537,1725.423,3084.92,1726.746,3083.393,1726.746Z" transform="translate(-3050.33 -1707.25)" fill="#fff"/>
          </g>
        </g>
      </g>
      <g id="Group_269" data-name="Group 269" transform="translate(1787.768 700.629)">
        <path id="Path_345" data-name="Path 345" d="M2899.067,864.907l192.779,1.016-42.631,227.644" transform="translate(-2899.067 -864.907)" fill="none" stroke="#9fc4ff" stroke-miterlimit="10" stroke-width="12"/>
        <circle id="Ellipse_24" data-name="Ellipse 24" cx="16.414" cy="16.414" r="16.414" transform="matrix(0.999, -0.047, 0.047, 0.999, 130.829, 221.277)" fill="#9fc4ff"/>
      </g>
    </g>
  </g>
</svg>
